<svg xmlns="http://www.w3.org/2000/svg" xmlns:xlink="http://www.w3.org/1999/xlink" width="500" zoomAndPan="magnify" viewBox="0 0 375 374.999991" height="500" preserveAspectRatio="xMidYMid meet" version="1.0"><defs><clipPath id="d97b02fd68"><path d="M 87 293 L 288 293 L 288 348.75 L 87 348.75 Z M 87 293 " clip-rule="nonzero"/></clipPath></defs><path fill="#fffbae" d="M 371.222656 169.789062 C 370.953125 261.234375 288.476562 335.128906 187.027344 334.839844 C 85.5625 334.542969 3.507812 260.164062 3.785156 168.722656 C 4.054688 77.277344 86.523438 3.382812 187.980469 3.671875 C 289.449219 3.964844 371.484375 78.332031 371.222656 169.789062 " fill-opacity="1" fill-rule="nonzero"/><path fill="#2c9a42" d="M 187.390625 7.296875 C 88.347656 7.296875 7.671875 79.597656 7.402344 168.730469 C 7.273438 211.917969 25.84375 252.59375 59.683594 283.273438 C 93.636719 314.050781 138.867188 331.074219 187.035156 331.214844 C 187.238281 331.214844 187.433594 331.214844 187.625 331.214844 C 286.660156 331.214844 367.335938 258.902344 367.589844 169.769531 C 367.851562 80.46875 287.277344 7.589844 187.972656 7.296875 C 187.789062 7.296875 187.574219 7.296875 187.390625 7.296875 Z M 187.625 338.464844 C 187.425781 338.464844 187.230469 338.464844 187.019531 338.464844 C 137.042969 338.320312 90.097656 320.632812 54.820312 288.648438 C 19.429688 256.570312 0.0195312 213.976562 0.152344 168.714844 C 0.433594 75.59375 84.371094 0.0390625 187.390625 0.0390625 C 187.59375 0.0390625 187.789062 0.0390625 187.988281 0.046875 C 291.289062 0.34375 375.117188 76.492188 374.847656 169.796875 C 374.574219 262.90625 290.640625 338.464844 187.625 338.464844 " fill-opacity="1" fill-rule="nonzero"/><path fill="#80cc2a" d="M 187.1875 275.613281 C 278.027344 275.875 353.625 218.996094 369.042969 143.902344 C 355.492188 64.699219 279.671875 3.933594 187.980469 3.671875 C 96.289062 3.402344 20.125 63.734375 6.101562 142.855469 C 21.097656 218.023438 96.355469 275.351562 187.1875 275.613281 " fill-opacity="1" fill-rule="nonzero"/><path fill="#2c9a42" d="M 187.1875 273.804688 C 187.390625 273.804688 187.601562 273.804688 187.796875 273.804688 C 276.203125 273.804688 351.53125 219.265625 367.199219 143.878906 C 353.339844 63.929688 278.019531 5.75 187.980469 5.480469 C 187.777344 5.480469 187.566406 5.480469 187.375 5.480469 C 97.589844 5.480469 22.253906 63.144531 7.941406 142.839844 C 23.226562 218.488281 98.546875 273.542969 187.195312 273.804688 Z M 187.796875 277.429688 C 187.59375 277.429688 187.390625 277.429688 187.1875 277.429688 C 187.1875 277.429688 187.1875 277.429688 187.179688 277.429688 C 96.6875 277.160156 19.785156 220.71875 4.328125 143.210938 C 4.277344 142.992188 4.277344 142.761719 4.320312 142.542969 C 18.773438 60.9375 95.707031 1.855469 187.375 1.855469 C 187.574219 1.855469 187.777344 1.855469 187.980469 1.855469 C 279.917969 2.125 356.828125 61.730469 370.832031 143.601562 C 370.875 143.820312 370.867188 144.054688 370.824219 144.265625 C 354.960938 221.503906 278.042969 277.429688 187.796875 277.429688 " fill-opacity="1" fill-rule="nonzero"/><path fill="#ffffff" d="M 305.953125 124.566406 C 305.953125 152.578125 283.246094 175.269531 255.25 175.269531 C 227.238281 175.269531 204.53125 152.578125 204.53125 124.566406 C 204.53125 96.5625 227.238281 73.855469 255.25 73.855469 C 283.246094 73.855469 305.953125 96.5625 305.953125 124.566406 " fill-opacity="1" fill-rule="nonzero"/><path fill="#2c9a42" d="M 255.25 75.671875 C 228.285156 75.671875 206.347656 97.609375 206.347656 124.566406 C 206.347656 151.53125 228.285156 173.460938 255.25 173.460938 C 282.207031 173.460938 304.148438 151.53125 304.148438 124.566406 C 304.148438 97.609375 282.207031 75.671875 255.25 75.671875 Z M 255.25 177.085938 C 226.285156 177.085938 202.714844 153.527344 202.714844 124.566406 C 202.714844 95.609375 226.285156 72.046875 255.25 72.046875 C 284.210938 72.046875 307.769531 95.609375 307.769531 124.566406 C 307.769531 153.527344 284.210938 177.085938 255.25 177.085938 " fill-opacity="1" fill-rule="nonzero"/><path fill="#221b1a" d="M 208.628906 133.148438 C 208.628906 147.535156 220.292969 159.1875 234.664062 159.1875 C 249.042969 159.1875 260.699219 147.535156 260.699219 133.148438 C 260.699219 118.773438 249.042969 107.113281 234.664062 107.113281 C 220.292969 107.113281 208.628906 118.773438 208.628906 133.148438 " fill-opacity="1" fill-rule="nonzero"/><path fill="#ffffff" d="M 223.039062 120.941406 C 223.039062 127.363281 228.242188 132.566406 234.664062 132.566406 C 241.085938 132.566406 246.296875 127.363281 246.296875 120.941406 C 246.296875 114.515625 241.085938 109.300781 234.664062 109.300781 C 228.242188 109.300781 223.039062 114.515625 223.039062 120.941406 " fill-opacity="1" fill-rule="nonzero"/><path fill="#ffffff" d="M 69.046875 124.566406 C 69.046875 152.578125 91.753906 175.269531 119.757812 175.269531 C 147.753906 175.269531 170.460938 152.578125 170.460938 124.566406 C 170.460938 96.5625 147.753906 73.855469 119.757812 73.855469 C 91.753906 73.855469 69.046875 96.5625 69.046875 124.566406 " fill-opacity="1" fill-rule="nonzero"/><path fill="#2c9a42" d="M 119.757812 75.671875 C 92.792969 75.671875 70.851562 97.609375 70.851562 124.566406 C 70.851562 151.53125 92.792969 173.460938 119.757812 173.460938 C 146.714844 173.460938 168.652344 151.53125 168.652344 124.566406 C 168.652344 97.609375 146.714844 75.671875 119.757812 75.671875 Z M 119.757812 177.085938 C 90.789062 177.085938 67.230469 153.527344 67.230469 124.566406 C 67.230469 95.609375 90.789062 72.046875 119.757812 72.046875 C 148.714844 72.046875 172.277344 95.609375 172.277344 124.566406 C 172.277344 153.527344 148.714844 177.085938 119.757812 177.085938 " fill-opacity="1" fill-rule="nonzero"/><path fill="#221b1a" d="M 166.371094 133.148438 C 166.371094 147.535156 154.714844 159.1875 140.335938 159.1875 C 125.957031 159.1875 114.308594 147.535156 114.308594 133.148438 C 114.308594 118.773438 125.957031 107.113281 140.335938 107.113281 C 154.714844 107.113281 166.371094 118.773438 166.371094 133.148438 " fill-opacity="1" fill-rule="nonzero"/><path fill="#ffffff" d="M 151.96875 120.941406 C 151.96875 127.363281 146.765625 132.566406 140.335938 132.566406 C 133.90625 132.566406 128.703125 127.363281 128.703125 120.941406 C 128.703125 114.515625 133.90625 109.300781 140.335938 109.300781 C 146.765625 109.300781 151.96875 114.515625 151.96875 120.941406 " fill-opacity="1" fill-rule="nonzero"/><path fill="#f14626" d="M 75.433594 159.1875 C 75.433594 165.394531 63.832031 170.429688 49.539062 170.429688 C 35.230469 170.429688 23.636719 165.394531 23.636719 159.1875 C 23.636719 152.976562 35.230469 147.941406 49.539062 147.941406 C 63.832031 147.941406 75.433594 152.976562 75.433594 159.1875 " fill-opacity="1" fill-rule="nonzero"/><path fill="#f14626" d="M 351.363281 159.1875 C 351.363281 165.394531 339.761719 170.429688 325.46875 170.429688 C 311.167969 170.429688 299.578125 165.394531 299.578125 159.1875 C 299.578125 152.976562 311.167969 147.941406 325.46875 147.941406 C 339.761719 147.941406 351.363281 152.976562 351.363281 159.1875 " fill-opacity="1" fill-rule="nonzero"/><path fill="#2c9a42" d="M 91.222656 193.832031 C 90.605469 193.832031 89.996094 193.507812 89.65625 192.933594 C 89.152344 192.074219 89.4375 190.957031 90.300781 190.460938 C 96.871094 186.617188 132.445312 167.449219 187.5 167.449219 C 242.578125 167.449219 278.121094 186.617188 284.691406 190.460938 C 285.554688 190.957031 285.839844 192.074219 285.332031 192.933594 C 284.828125 193.804688 283.71875 194.082031 282.859375 193.585938 C 276.429688 189.824219 241.640625 171.070312 187.5 171.070312 C 133.382812 171.070312 98.5625 189.824219 92.140625 193.585938 C 91.847656 193.753906 91.535156 193.832031 91.222656 193.832031 " fill-opacity="1" fill-rule="nonzero"/><path fill="#fffbae" d="M 91.09375 297.390625 L 283.914062 297.390625 C 283.914062 312.453125 240.746094 345.085938 187.5 345.085938 C 134.253906 345.085938 91.09375 312.453125 91.09375 297.390625 " fill-opacity="1" fill-rule="nonzero"/><g clip-path="url(#d97b02fd68)"><path fill="#2c9a42" d="M 187.5 348.710938 C 132.75 348.710938 87.460938 314.734375 87.460938 297.390625 C 87.460938 295.390625 89.082031 293.765625 91.085938 293.765625 C 93.097656 293.765625 94.71875 295.390625 94.71875 297.390625 C 94.71875 309.808594 135.859375 341.464844 187.5 341.464844 C 239.140625 341.464844 280.289062 309.808594 280.289062 297.390625 C 280.289062 295.390625 281.914062 293.765625 283.914062 293.765625 C 285.917969 293.765625 287.539062 295.390625 287.539062 297.390625 C 287.539062 314.734375 242.25 348.710938 187.5 348.710938 " fill-opacity="1" fill-rule="nonzero"/></g><path fill="#2c9a42" d="M 129.960938 226.515625 C 129.960938 230.171875 125.957031 233.136719 121.023438 233.136719 C 116.082031 233.136719 112.085938 230.171875 112.085938 226.515625 C 112.085938 222.847656 116.082031 219.882812 121.023438 219.882812 C 125.957031 219.882812 129.960938 222.847656 129.960938 226.515625 " fill-opacity="1" fill-rule="nonzero"/><path fill="#2c9a42" d="M 262.921875 226.515625 C 262.921875 230.171875 258.925781 233.136719 253.984375 233.136719 C 249.042969 233.136719 245.046875 230.171875 245.046875 226.515625 C 245.046875 222.847656 249.042969 219.882812 253.984375 219.882812 C 258.925781 219.882812 262.921875 222.847656 262.921875 226.515625 " fill-opacity="1" fill-rule="nonzero"/></svg>